<svg width="477" height="55" viewBox="0 0 477 55" fill="none" xmlns="http://www.w3.org/2000/svg">
<path d="M0.752841 54V1.63636H19.929C23.6449 1.63636 26.7216 2.25 29.1591 3.47727C31.5966 4.6875 33.4205 6.33239 34.6307 8.41193C35.8409 10.4744 36.446 12.8011 36.446 15.392C36.446 17.5739 36.0455 19.4148 35.2443 20.9148C34.4432 22.3977 33.3693 23.5909 32.0227 24.4943C30.6932 25.3807 29.2273 26.0284 27.625 26.4375V26.9489C29.3636 27.0341 31.0597 27.5966 32.7131 28.6364C34.3835 29.6591 35.7642 31.1165 36.8551 33.0085C37.946 34.9006 38.4915 37.2017 38.4915 39.9119C38.4915 42.5881 37.8608 44.9915 36.5994 47.1222C35.3551 49.2358 33.429 50.9148 30.821 52.1591C28.2131 53.3864 24.8807 54 20.8239 54H0.752841ZM8.65341 47.2244H20.0568C23.8409 47.2244 26.5511 46.4915 28.1875 45.0256C29.8239 43.5597 30.642 41.7273 30.642 39.5284C30.642 37.875 30.2244 36.358 29.3892 34.9773C28.554 33.5966 27.3608 32.4972 25.8097 31.679C24.2756 30.8608 22.4517 30.4517 20.3381 30.4517H8.65341V47.2244ZM8.65341 24.2898H19.2386C21.0114 24.2898 22.6051 23.9489 24.0199 23.267C25.4517 22.5852 26.5852 21.6307 27.4205 20.4034C28.2727 19.1591 28.6989 17.6932 28.6989 16.0057C28.6989 13.8409 27.9403 12.0256 26.4233 10.5597C24.9063 9.09375 22.5795 8.36079 19.4432 8.36079H8.65341V24.2898ZM64.4028 1.63636V54H56.5022V1.63636H64.4028ZM81.9661 8.4375V1.63636H122.492V8.4375H106.154V54H98.2786V8.4375H81.9661ZM140.087 1.63636H149.675L166.345 42.3409H166.959L183.63 1.63636H193.218V54H185.701V16.108H185.215L169.772 53.9233H163.533L148.09 16.0824H147.604V54H140.087V1.63636ZM217.767 54H209.381L228.225 1.63636H237.353L256.196 54H247.81L233.006 11.1477H232.597L217.767 54ZM219.174 33.4943H246.378V40.142H219.174V33.4943ZM272.398 54V1.63636H291.063C295.137 1.63636 298.512 2.37784 301.188 3.86079C303.864 5.34375 305.867 7.37216 307.196 9.94602C308.526 12.5028 309.191 15.3835 309.191 18.5881C309.191 21.8097 308.517 24.7074 307.171 27.2812C305.841 29.8381 303.83 31.8665 301.137 33.3665C298.461 34.8494 295.094 35.5909 291.037 35.5909H278.202V28.892H290.321C292.895 28.892 294.983 28.4489 296.586 27.5625C298.188 26.6591 299.364 25.4318 300.114 23.8807C300.864 22.3295 301.239 20.5653 301.239 18.5881C301.239 16.6108 300.864 14.8551 300.114 13.321C299.364 11.7869 298.179 10.5852 296.56 9.71591C294.958 8.84659 292.844 8.41193 290.219 8.41193H280.299V54H272.398Z" fill="#F7931A"/>
<path d="M355.652 15.392C355.38 12.9716 354.255 11.0966 352.277 9.76704C350.3 8.42045 347.812 7.74716 344.812 7.74716C342.664 7.74716 340.806 8.08807 339.238 8.76988C337.67 9.43466 336.451 10.3551 335.581 11.5312C334.729 12.6903 334.303 14.0114 334.303 15.4943C334.303 16.7386 334.593 17.8125 335.172 18.7159C335.769 19.6193 336.545 20.3778 337.499 20.9915C338.471 21.5881 339.51 22.0909 340.618 22.5C341.726 22.892 342.792 23.2159 343.814 23.4716L348.928 24.8011C350.599 25.2102 352.312 25.7642 354.067 26.4631C355.823 27.1619 357.451 28.0824 358.951 29.2244C360.451 30.3665 361.661 31.7812 362.581 33.4688C363.519 35.1562 363.988 37.1761 363.988 39.5284C363.988 42.4943 363.221 45.1278 361.687 47.429C360.17 49.7301 357.962 51.5455 355.064 52.875C352.184 54.2045 348.698 54.8693 344.607 54.8693C340.687 54.8693 337.295 54.2472 334.431 53.0028C331.567 51.7585 329.326 49.9943 327.706 47.7102C326.087 45.4091 325.192 42.6818 325.022 39.5284H332.948C333.101 41.4205 333.715 42.9972 334.789 44.2585C335.88 45.5028 337.269 46.4318 338.956 47.0455C340.661 47.642 342.527 47.9403 344.556 47.9403C346.789 47.9403 348.775 47.5909 350.513 46.892C352.269 46.1761 353.65 45.1875 354.655 43.9261C355.661 42.6477 356.164 41.1562 356.164 39.4517C356.164 37.9006 355.721 36.6307 354.834 35.642C353.965 34.6534 352.78 33.8352 351.28 33.1875C349.797 32.5398 348.118 31.9688 346.243 31.4744L340.056 29.7869C335.863 28.6449 332.539 26.9659 330.084 24.75C327.647 22.5341 326.428 19.6023 326.428 15.9545C326.428 12.9375 327.246 10.304 328.883 8.05397C330.519 5.80397 332.735 4.05682 335.53 2.8125C338.326 1.55114 341.479 0.920453 344.991 0.920453C348.536 0.920453 351.664 1.54261 354.374 2.78693C357.101 4.03125 359.249 5.74432 360.817 7.92613C362.385 10.0909 363.204 12.5795 363.272 15.392H355.652ZM379.486 8.4375V1.63636H420.012V8.4375H403.674V54H395.799V8.4375H379.486ZM437.607 54V1.63636H456.272C460.329 1.63636 463.695 2.33523 466.371 3.73295C469.065 5.13068 471.076 7.06534 472.406 9.53693C473.735 11.9915 474.4 14.8295 474.4 18.0511C474.4 21.2557 473.727 24.0767 472.38 26.5142C471.05 28.9347 469.039 30.8182 466.346 32.1648C463.67 33.5114 460.303 34.1847 456.246 34.1847H442.107V27.3835H455.531C458.087 27.3835 460.167 27.017 461.769 26.2841C463.388 25.5511 464.573 24.4858 465.323 23.0881C466.073 21.6903 466.448 20.0114 466.448 18.0511C466.448 16.0739 466.065 14.3608 465.298 12.9119C464.548 11.4631 463.363 10.3551 461.744 9.58807C460.141 8.80398 458.036 8.41193 455.428 8.41193H445.508V54H437.607ZM463.457 30.375L476.394 54H467.394L454.712 30.375H463.457Z" fill="#C3C3C3"/>
</svg>
